<?xml version="1.0" standalone="no"?>
<!DOCTYPE svg PUBLIC "-//W3C//DTD SVG 20010904//EN"
 "http://www.w3.org/TR/2001/REC-SVG-20010904/DTD/svg10.dtd">
<svg version="1.0" xmlns="http://www.w3.org/2000/svg"
 width="160.000000pt" height="160.000000pt" viewBox="0 0 160.000000 160.000000"
 preserveAspectRatio="xMidYMid meet">
<metadata>
Created by potrace 1.15, written by Peter Selinger 2001-2017
</metadata>
<g transform="translate(0.000000,160.000000) scale(0.100000,-0.100000)"
fill="#000000" stroke="none">
<path d="M544 961 c-37 -16 -64 -60 -64 -106 0 -81 62 -120 152 -97 23 6 44
10 45 8 1 -1 -2 -19 -8 -39 -14 -51 -41 -67 -116 -67 -47 0 -63 -4 -63 -14 0
-28 98 -35 155 -12 59 25 87 117 65 220 -16 76 -43 107 -100 112 -25 2 -55 0
-66 -5z m100 -50 c22 -24 39 -92 26 -105 -5 -5 -32 -11 -60 -14 -39 -4 -55 -1
-70 13 -26 24 -26 79 0 105 26 26 81 26 104 1z"/>
<path d="M833 960 c-39 -16 -56 -56 -61 -145 -7 -132 20 -183 101 -192 57 -7
104 17 123 62 8 20 14 68 14 112 0 121 -36 173 -120 172 -19 0 -45 -4 -57 -9z
m113 -51 c16 -18 19 -37 19 -114 0 -110 -14 -135 -75 -135 -61 0 -75 25 -75
135 0 110 14 135 75 135 25 0 43 -7 56 -21z"/>
</g>
</svg>
